<?xml version="1.0" encoding="utf-8"?>
<!-- Generator: Adobe Illustrator 17.1.0, SVG Export Plug-In . SVG Version: 6.00 Build 0)  -->
<!DOCTYPE svg PUBLIC "-//W3C//DTD SVG 1.1//EN" "http://www.w3.org/Graphics/SVG/1.1/DTD/svg11.dtd">
<svg version="1.1" id="レイヤー_1" xmlns="http://www.w3.org/2000/svg" xmlns:xlink="http://www.w3.org/1999/xlink" x="0px"
	 y="0px" viewBox="0 0 480 640" enable-background="new 0 0 480 640" xml:space="preserve">
<g>
	<g>
		<path fill="#595757" d="M283.5,243c5.2,0,32.4,19.6,36.2,22.2c-6.9,4.3-16.5,6.9-24.3,8.7L283.5,243z"/>
		<path fill="#231815" d="M295.4,276.9c-1.2,0-2.3-0.7-2.8-1.9l-11.9-30.9c-0.3-0.9-0.2-1.9,0.3-2.7c0.6-0.8,1.5-1.3,2.5-1.3
			c2.9,0,9.4,2.6,36.3,21.6c0.7,0.5,1.3,0.9,1.6,1.1c0.8,0.6,1.3,1.5,1.3,2.5c0,1-0.6,1.9-1.4,2.4c-7.7,4.8-18.1,7.5-25.2,9.1
			C295.9,276.9,295.7,276.9,295.4,276.9z M288.8,248.3l8.5,22.2c5.1-1.2,11.4-3,16.9-5.5C300.7,255.5,293.1,250.7,288.8,248.3z"/>
	</g>
	<path fill="#231815" d="M217.6,413.1c-14.6,0-28.2-7.3-35.2-14.5c-4.2-4.3-6.3-8.7-6.2-12.8c0.2-7.5,5.2-12.6,12.4-12.6
		c6.8,0,13.7,4.5,18,11.8c3.3,5.5,9.3,6.6,13.8,6.6c0,0,0,0,0,0c10.7,0,25.2-6.5,35.3-17.8c-3.1,0.5-5.9,0.6-8.1,0.6
		c-0.3,0-0.6,0-0.9,0c-3.2,3.9-7.7,6-13,6c-3.5,0-9-1.1-11.1-7.9c-9.6-1-18.6-4.3-26.4-9.7c-0.2,0.8-0.6,1.6-1.1,2.3
		c-1.5,2.3-4.1,3.6-7.1,3.6c-1,0-2.1-0.1-3.2-0.4c-11.4-2.7-25.8-18.7-27.7-28.2c-1-4.6,0-9,2.6-12.3c2.4-2.9,6-4.6,9.9-4.6
		c0.8,0,1.6,0.1,2.4,0.2c-0.3-2.5-0.5-5.1-0.5-7.7c0-10.2,2.7-20.1,7.8-28.8c-0.2-0.6-0.4-1.1-0.5-1.7c-0.6-3,0.4-6.3,2.8-9.1
		c0.4-0.4,0.7-0.8,1.1-1.2c-3.5-1.1-5.1-3.6-5.3-5.8c-0.3-3.1,1.7-5.8,4.8-6.5c1.9-0.4,8.7-4.3,12.3-7.7
		c10.8-16.7,30.7-26.4,53.1-25.7c10.4,0.3,19.7,3.5,27.9,9.4c5.1,0.3,12.2,0.3,17.3,0.3c3.2,0,6.3,0,9.3,0c2.6,0,5.1,0,7.3,0
		c6.8,0,8.4,0.1,9.5,0.4c2.5,0.6,4.1,2.8,4.1,5.5c0.1,5.2-5.7,14.7-18.5,18.6c-2.1,0.6-4.3,0.9-6.5,0.9l0,0c-1,0-2-0.1-2.9-0.2
		c0.7,1.5,1.3,3.1,1.8,4.7c8.2,23.1,10.1,74.8-14.5,93.6c-6.7,22.7-29.8,43.4-55.7,49.5C224,412.8,220.8,413.1,217.6,413.1z
		 M188.7,382.1c-1.4,0-3.3,0.4-3.5,3.9c0,1.2,0.9,3.5,3.7,6.3c5.5,5.7,16.9,11.8,28.8,11.8c2.5,0,5-0.3,7.3-0.8
		c18.7-4.4,36.2-17.9,45-33.5l-0.4,0.2c-10.1,17.4-30.9,30.4-49,30.4c0,0,0,0,0,0c-9.6,0-17.3-3.9-21.5-11
		C196,384.4,191.6,382.1,188.7,382.1z M226.5,363.8c0.6,0,1.2,0.1,1.7,0.3c1.5,0.6,2.6,2.1,2.7,3.8c0.3,3.7,1.1,3.7,3,3.7
		c3.1,0,5.3-1.3,6.9-4c0.9-1.4,2.5-2.3,4.1-2.1c0.9,0.1,1.8,0.1,2.8,0.1c4.3,0,11.1-0.7,18.9-4.1c2.2-0.9,4.7,0,5.8,2.1
		c0.1,0.2,0.2,0.3,0.2,0.5c0.7-1.8,1.3-3.6,1.8-5.4c0.3-1,0.9-1.9,1.8-2.5c21.1-14.5,20.1-62.8,12.5-84.3c-1.6-4.5-3.6-8.8-6-12.6
		c-1-1.7-0.9-3.8,0.5-5.3c1.3-1.5,3.4-1.9,5.2-1.1c3.5,1.7,6.8,2.5,9.8,2.5l0,0c1.4,0,2.7-0.2,4-0.6c5.6-1.7,8.9-4.7,10.7-7
		c-0.9,0-2,0-3.2,0c-2.2,0-4.6,0-7.2,0c-3,0-6.2,0-9.4,0c-5.7,0-13.9,0-19.2-0.4c-0.9-0.1-1.7-0.4-2.4-0.9
		c-6.9-5.3-14.9-8.1-23.8-8.4c-0.7,0-1.3,0-2,0c-18.6,0-34.9,8.2-43.6,22c-0.2,0.3-0.4,0.5-0.6,0.8c-1.1,1.1-2.6,2.3-4.1,3.5
		c1.2,0.7,2.1,1.9,2.3,3.4c0.2,2.1,1.6,2.9,1.8,3c2,1.1,2.8,3.6,1.9,5.7c-0.9,2.1-3.2,3.1-5.3,2.5c0,0,0,0,0,0
		c-1.5,1.3-3.7,1.4-5.4,0.3c-0.9,0.2-2.7,1.2-3.9,2.7c-0.7,0.8-0.9,1.5-0.8,1.7c0,0.3,0.1,0.4,0.2,0.5c1.4,1.5,1.6,3.7,0.4,5.4
		c-5.1,7.8-7.8,16.9-7.8,26.2c0,5.2,0.8,10.3,2.5,15.2c0.7,2-0.2,4.3-2.1,5.3c-1.9,1-4.2,0.6-5.6-1.1c-0.8-0.9-1.2-1.3-1.3-1.4
		c-1.4-1.1-2.9-1.7-4.3-1.7c-1.2,0-2.3,0.5-3,1.4c-0.9,1.1-1.2,2.8-0.8,4.8c1.3,6.3,13.5,19.5,21.1,21.3c0.4,0.1,0.6,0.1,0.9,0.1
		c0.1-0.9-0.2-2.7-0.7-3.9c-0.3-0.7-0.7-1.6-1.2-2.5c-1-2-0.3-4.4,1.5-5.6c1.8-1.2,4.3-1,5.8,0.7c8.4,9.1,19.8,14.6,32.1,15.4
		C225.8,363.8,226.1,363.8,226.5,363.8z"/>
	<path fill="#FFFFFF" d="M226.1,368.4c-27.9-1.2-50.2-24.2-50.2-52.4c0-17.2,8.2-32.4,21-42c9,4.7,16.2-3.9,21.8-8
		c16.1,4.1,42,1.7,59.5,33.4c2.7,4.8,2.7,10.8,2.7,16.6c0,5.2-0.8,10.2-2.2,15c-12.9-4.8-28.2,1.2-32.7,12.8
		C237.4,359.1,226.1,368.4,226.1,368.4z"/>
	<path fill="#8DC21F" d="M244.2,332.1c0.5-0.3,1.1-0.5,1.6-0.7c2-0.7,3.4-0.5,5.2-1.9c1-0.8,1.7-2.1,2.8-2.8c1.8-1,3.3-0.1,5-0.7
		c4.8-1.7,0.5-6.6,3.8-8.7c2.1-1.4,4.7,1.5,6.3-1.5c2.5-4.5-2.5-6.2,3.9-8.1c3.8-1.1,6.7-3.4,5.7-7.9c-1.9-8.1-12-16.9-18.5-21.4
		c-6.7-4.6-14.3-7.2-22.1-8.9c-3.5-0.7-7-1.3-10.6-1.9c-1.2-0.2-7.7-2.2-8.5-1.7c-5.6,4.1-12.7,12.7-21.8,8c-12.7,9.6-21,24.8-21,42
		c0,4,0.1,10.7,4.8,12.6c2.5,1,5.4-2.6,7.9-2.3c1.7,0.2,1.7,1.6,3.3,2.3c2.2,1,6.3-0.4,8.7,0c2.8,0.5,3.1,2.2,5.1,3
		c2.6,1.1,5.2-0.9,7.7-0.4c4.1,0.7,6.2,3.2,10.8,2.8c5.2-0.4,10.4,2.3,15.5,0.5C241.5,333.9,242.8,332.9,244.2,332.1z"/>
	<path fill="#DBDCDC" d="M227.9,353.6c-1.7-4-8.6-2.1-10.9,0.1c-2.8-4.8-5.6-4.9-10.1-2.1c-1.8-2.7-7.2-2.6-9.7-0.9
		c-0.8-1.6-1.4-2.9-3.3-3c-2.4-0.1-3,2.2-4.1,3.2l-0.3,0.2c9.1,10.1,22.1,16.7,36.6,17.3c0,0,7.5-6.1,14.9-16.7
		C236.4,351,231.1,351.8,227.9,353.6z"/>
	<path fill="#C1DA75" d="M254.2,290.8c-1.3-1.7-4.5-4.8-6.8-4.6c-0.4-4.5-5.4-7.5-9.5-8.4c-2.1-0.5-7.9-1.5-8.9,1.3
		c-1.7-9.1-17.2-1.8-20.4,2.1c0-0.6-0.3-1.1-0.7-1.5c-0.4,0.1-0.9,0.3-1.3,0.4c-2.5-1.5-5.3,0.6-6.8,2.9c-0.6,0.9-0.9,2.3-1.7,3.1
		c-0.8,0.8-2.5,1.2-3.5,1.7c-1.3,1.7-2.4,3.6-3.3,5.8c0.1-0.3-3.8-0.2-4.2,0c-1.2,0.4-2.2,1.1-3.1,2c-1.6,1.9-2.3,4.7-2.1,7.1
		c0.2,2.3,0.9,4,2.9,5.2c0.4,0.2,1.2,0,1.4,0.2c0.7,0.6,0.5,1.1,1.2,2c1.4,1.7,3,2.6,5.4,2c-0.8,3.7,5.7,4.1,7.5,2.4
		c2.3,2,8.9,4.7,10.8,0.6c3.2,4.2,7.8,2.6,11.6,0.3c1.4,1.9,7.2,3.2,9.3,2.6c2.3-0.6,3-2.7,4.4-4.1c-0.7,0.8,5.5,1.5,6.5,1
		c2.3-1.1,4.3-3.5,6.2-5.2c2.8-2.5,6.8-7.3,1.8-10C253.7,297.8,256.9,294.3,254.2,290.8z"/>
	<path fill="#EF8419" d="M194.6,270.1c-12.9,3.6-14.2-2.3-11.2-3c3-0.7,10.9-5.3,14.9-9.2L194.6,270.1z"/>
	<path fill="#EF8419" d="M278.8,359.9c-5.6,21.5-27.7,41.9-52.8,47.9c-21.6,5.1-45.5-11.6-45.2-21.8c0.4-11.5,14.9-10.9,22.1,1.3
		c11.1,18.7,49.2,5.6,63.4-20.5L278.8,359.9z"/>
	<path fill="#5699B4" d="M197.1,274c-0.1,0.1-0.3,0.2-0.4,0.3c0.2-0.1,0.4-0.2,0.6-0.2C197.3,274,197.2,274,197.1,274z"/>
	<path fill="#F4CA1D" d="M244.1,369.8c8.1,0.7,21.3-0.8,34.7-10c24.1-16.6,21.8-68,14.2-89.4c-7.6-21.5-23.4-36-45.2-36.6
		c-21.8-0.7-39.9,8.9-49.5,24.1c-6.5,10.2-1.7,15.8,1.3,17.2c3,1.3,15.5-3.6,19.1-10.2c8.6,5.3,18.2,3,26.4,0.3l15.8,4.6
		c-12.5-5-28.4-2-36.6,5.3c-8.3,7.3-2.6,12.5,3.6,13.2c6.3,0.7,18.5-4.9,28.1-3c9.6,2,12.5,5.5,22.7,14.7c0,0,5.6,22.4,0,31
		c-9.7-5.6-27.3,0.7-32.5,12.7L244.1,369.8z"/>
	<path fill="#231815" d="M278.9,332.4c-0.1,0-0.3,0-0.4-0.1c-0.8-0.2-1.2-1.1-1-1.8c1.4-4.7,2.1-9.6,2.1-14.6
		c0-5.5-0.9-10.9-2.6-16.1c-0.3-0.8,0.2-1.6,0.9-1.9c0.8-0.3,1.6,0.2,1.9,0.9c1.8,5.5,2.8,11.2,2.8,17.1c0,5.3-0.8,10.4-2.2,15.4
		C280.1,332,279.6,332.4,278.9,332.4z"/>
	<path fill="#231815" d="M246.8,344.5c-0.2,0-0.4,0-0.7-0.2c-0.7-0.4-1-1.2-0.7-2c4-8.1,11.5-13.3,20.6-14.2
		c7.5-0.8,15,1.6,18.2,5.7c0.5,0.6,0.4,1.6-0.3,2.1c-0.7,0.5-1.6,0.4-2.1-0.3c-2.6-3.3-9.1-5.3-15.6-4.6
		c-4.7,0.5-13.4,2.8-18.2,12.6C247.8,344.2,247.3,344.5,246.8,344.5z"/>
	<path fill="#231815" d="M247.7,371.5c-1.5,0-2.7-0.1-3.7-0.2c-0.8-0.1-1.4-0.8-1.3-1.6c0.1-0.8,0.8-1.4,1.6-1.3
		c5.2,0.5,18.9,0.4,33.7-9.7c23.2-16,21.2-66.3,13.6-87.7c-7.8-22-23.8-35-43.9-35.6c-20.6-0.6-38.6,8.1-48.2,23.4
		c-2.6,4.2-3.5,8-2.6,11c0.7,2.2,2.2,3.5,3.3,4c1.9,0.8,13.8-3.3,17.2-9.6c0.2-0.4,0.5-0.6,0.9-0.7c0.4-0.1,0.8,0,1.2,0.2
		c8.1,5,17.3,2.7,25.2,0.2c0.8-0.2,1.6,0.2,1.9,1c0.2,0.8-0.2,1.6-1,1.9c-8.7,2.8-17.9,4.7-26.4,0.2c-4.7,6.5-16.6,11.2-20.2,9.6
		c-1.8-0.8-4-2.7-4.9-5.9c-0.8-2.7-1-7.2,3-13.4c10.2-16.2,29.2-25.5,50.8-24.8c21.4,0.7,38.3,14.4,46.6,37.6
		c3.6,10.1,6.4,28.5,4.9,47.2c-1.2,14.8-5.7,34.4-19.6,44C266.8,369.9,254.7,371.5,247.7,371.5z"/>
	<path fill="#EF8419" d="M273.5,243c-5.9-0.5-1.3,4,0.7,5.6c2,1.7,16.2,14.5,29.4,10.6c13.2-4,17.2-14.9,14.5-15.5
		C315.4,243,285.7,244,273.5,243z"/>
	<path fill="#231815" d="M298.3,261.4C298.3,261.4,298.3,261.4,298.3,261.4c-5.2,0-13.7-2-24.7-11.4l-0.4-0.3
		c-4.9-4.1-4.2-5.9-4-6.5c0.4-1.2,1.6-1.8,3.4-1.8c0.3,0,0.6,0,0.9,0c5.1,0.4,13.5,0.5,19.4,0.5c3.2,0,6.4,0,9.4,0
		c2.6,0,5.1,0,7.3,0c6.3,0,8,0.1,8.7,0.3c1.2,0.3,1.9,1.3,1.9,2.7c0.1,3.6-4.8,12.2-16.4,15.6C302.2,261.2,300.2,261.4,298.3,261.4z
		 M272.3,244.5c0.4,0.6,1.3,1.7,2.9,3l0.4,0.3c10.3,8.8,18.1,10.6,22.8,10.6h0c1.7,0,3.3-0.2,4.8-0.7c7.2-2.2,11.7-6.7,13.5-10.1
		c0.7-1.3,0.8-2.2,0.8-2.6c-1-0.1-3.5-0.1-7.6-0.1c-2.2,0-4.7,0-7.3,0c-3,0-6.2,0-9.4,0c-5.9,0-14.4,0-19.6-0.5
		C272.9,244.5,272.5,244.5,272.3,244.5z"/>
	<path fill="#231815" d="M187.4,272.7c-3.4,0-5-1-5.8-1.8c-0.9-0.9-1.2-2.1-0.9-3.1c0.3-1.1,1.2-1.8,2.4-2.1
		c2.6-0.6,10.2-4.9,14.1-8.8c0.6-0.6,1.5-0.6,2.1,0c0.6,0.6,0.6,1.5,0,2.1c-4.1,4.1-12.2,8.9-15.6,9.6c-0.1,0-0.2,0.1-0.2,0.1
		c0,0,0.1,0.2,0.4,0.4c0.6,0.4,3.2,1.6,10.2-0.4c0.8-0.2,1.6,0.2,1.8,1c0.2,0.8-0.2,1.6-1,1.8C191.8,272.4,189.4,272.7,187.4,272.7z
		"/>
	<path fill="#231815" d="M216.1,256.2c-2.4,1.8-1.6,4,1,4.3c2.6,0.3,2.8,0.5,5.3-1.3c2.6-2,3-5.3,0-5
		C219.4,254.6,217.4,255.2,216.1,256.2z"/>
	<path fill="#231815" d="M209.1,257.5c0,1.6-1.3,3-3,3c-1.6,0-3-1.3-3-3c0-1.6,1.3-3,3-3C207.8,254.6,209.1,255.9,209.1,257.5z"/>
	<path fill="#231815" d="M243.5,249.3c0,1.6-1.3,3-3,3c-1.6,0-3-1.3-3-3c0-1.6,1.3-3,3-3C242.1,246.3,243.5,247.7,243.5,249.3z"/>
	<path fill="#231815" d="M217.7,410.1c-11.5,0-22.9-4.9-30.1-10.8c-5.5-4.5-8.5-9.4-8.4-13.4c0.2-4.9,2.6-8.3,6.8-9.4
		c5.3-1.4,13.2,1.6,18.1,10c4.1,6.9,11.5,8.2,17,8.1c16.3-0.3,35.1-12.6,43.8-28.5c0.4-0.7,1.3-1,2-0.6c0.7,0.4,1,1.3,0.6,2
		c-9.1,16.8-29.1,29.7-46.4,30c-8.9,0.1-15.8-3.2-19.6-9.5c-4.2-7.1-10.6-9.7-14.8-8.6c-2.8,0.7-4.4,3.1-4.5,6.6
		c-0.1,3.1,2.6,7.2,7.3,11c8.4,6.9,22.8,12.4,36.1,9.2c24.4-5.8,46.1-25.4,51.7-46.8c0.2-0.8,1-1.3,1.8-1.1c0.8,0.2,1.3,1,1.1,1.8
		c-5.8,22.3-28.5,42.9-53.9,48.9C223.5,409.8,220.6,410.1,217.7,410.1z"/>
	<path fill="#231815" d="M282.1,303.9c-0.4,0-0.7-0.1-1-0.4l-1.2-1.1c-9.6-8.7-15.4-13.9-24.2-15.7c-5.3-1.1-11.6,0.3-17.2,1.5
		c-4.2,0.9-7.9,1.8-10.7,1.4c-4.4-0.5-7.8-2.8-8.8-5.8c-0.7-2.2-0.5-5.7,4.3-9.9c9.1-8,25.8-10.4,38.2-5.5c0.8,0.3,1.1,1.2,0.8,1.9
		c-0.3,0.8-1.2,1.1-1.9,0.8c-11.4-4.5-26.8-2.3-35.1,5c-2.8,2.5-4.1,4.9-3.5,6.8c0.6,1.9,3.1,3.5,6.3,3.8c2.4,0.2,6-0.6,9.8-1.4
		c5.9-1.3,12.5-2.8,18.4-1.6c9.6,2,16,7.7,25.6,16.5l1.2,1.1c0.6,0.5,0.7,1.5,0.1,2.1C282.9,303.7,282.5,303.9,282.1,303.9z"/>
	<g>
		<path fill="#F4CA1D" d="M176.8,330.5c-8.1-6.2-17.2-0.7-15.2,8.9c1.6,7.9,14.9,22.5,24.4,24.8c8.3,2,6.6-6.9,5.3-9.9
			C189,349,181.1,333.8,176.8,330.5z"/>
		<path fill="#231815" d="M188.2,365.9L188.2,365.9c-0.8,0-1.6-0.1-2.5-0.3c-10-2.4-23.8-17.5-25.5-25.9c-0.8-3.8-0.1-7.2,2-9.8
			c1.8-2.3,4.6-3.5,7.6-3.5c2.7,0,5.4,1,7.9,2.9c4.9,3.8,13.2,20.2,15,24.3c0.7,1.7,2.2,6.8,0.2,10
			C192.1,364.7,190.8,365.9,188.2,365.9z M169.8,329.3c-2.1,0-4,0.9-5.3,2.4c-1.5,1.8-2,4.4-1.4,7.3c1.5,7.3,14.5,21.5,23.3,23.6
			c0.7,0.2,1.3,0.2,1.8,0.2c1.4,0,1.9-0.5,2.1-0.9c1.1-1.6,0.5-5.2-0.4-7.2c-2.4-5.6-10.2-20.2-14.1-23.2
			C173.9,330.1,171.8,329.3,169.8,329.3z"/>
	</g>
	<g>
		<path fill="#F4CA1D" d="M246.8,364.5c0,0-2,11.5-12.9,11.5c-10.9,0-6.3-13.2-7.6-21.8c-1.3-8.6-6.6-19.8,1.3-25.1
			c7.9-5.3,17.5,10.2,19.1,16.2C249.1,353.3,248.7,358.2,246.8,364.5z"/>
		<path fill="#231815" d="M233.9,378c-2.9,0-5.1-0.8-6.7-2.5c-3-3.1-2.8-8.4-2.7-13.5c0.1-2.6,0.2-5.3-0.2-7.5
			c-0.3-1.8-0.7-3.8-1.2-5.8c-1.8-7.7-3.9-16.3,3.4-21.2c1.4-0.9,2.9-1.4,4.5-1.4c8.6,0,16.2,13.5,17.6,18.7c2.5,8.7,1.9,14,0,20.1
			C247.9,369.5,243.7,378,233.9,378z M231.1,330.1c-0.8,0-1.6,0.2-2.3,0.7c-4.7,3.1-3.7,8.8-1.8,17c0.5,2,1,4.2,1.3,6.1
			c0.4,2.6,0.3,5.4,0.2,8.2c-0.1,4.3-0.3,8.7,1.6,10.7c0.8,0.8,2.1,1.2,3.9,1.2c9.1,0,10.8-9.5,10.9-9.9c0-0.1,0-0.2,0.1-0.3
			c1.8-5.6,2.3-10.1,0-18C243.4,340.6,236.4,330.1,231.1,330.1z"/>
	</g>
	<g>
		<path fill="#F4CA1D" d="M194,275c-3.3-1.3-11.6,4.3-10.6,9.6c1,5.3,6.9,5.3,10.9,1.3C198.2,282,197.2,276.3,194,275z"/>
		<path fill="#231815" d="M188.2,290.2L188.2,290.2c-3.2,0-5.6-2.1-6.2-5.4c-0.4-2.2,0.4-4.5,2.2-6.7c2.3-2.8,6-4.8,8.7-4.8
			c0.6,0,1.2,0.1,1.7,0.3c1.8,0.7,3.2,2.5,3.6,4.7c0.6,3-0.4,6.2-2.8,8.6C193.3,289,190.7,290.2,188.2,290.2z M192.8,276.3
			c-1.6,0-4.5,1.4-6.5,3.8c-0.7,0.9-1.8,2.5-1.5,4.2c0.5,2.4,2.1,2.9,3.3,2.9c1.7,0,3.6-0.9,5.1-2.4c1.7-1.7,2.4-3.9,2-5.9
			c-0.3-1.3-0.9-2.2-1.8-2.6C193.3,276.4,193.1,276.3,192.8,276.3z"/>
	</g>
	<g>
		<path fill="#231815" d="M211.5,255l-2.1-2.1c5.2-5.2,13.5-11.9,17.5-14.9l1.8,2.4C224.8,243.3,216.6,249.8,211.5,255z"/>
		<path fill="#231815" d="M196.4,270l-2.5-1.6c1.9-2.8,8.5-9.9,10.3-10.8l1.3,2.7l-0.7-1.3l0.7,1.3
			C204.4,260.8,198.3,267.1,196.4,270z"/>
		<path fill="#231815" d="M203.8,251.8c-3.6,2-5.2,5.9-3.7,8.7c1.6,2.8,5.7,3.4,9.3,1.4c3.6-2,5.2-5.9,3.7-8.7
			C211.5,250.5,207.4,249.8,203.8,251.8z"/>
	</g>
	<g>
		<g>
			<path fill="#231815" d="M186.6,228.7c3.4-4.6,7.1-9.9,7.8-11.2c0.2-0.7,0.7-1.3,1.4-1.6c1.1-0.5,2.4-0.1,3.1,0.9
				c1,1.5,6,4,10.1,6l0.3,0.1c0.6,0.3,1.1,0.9,1.3,1.5c0.2,0.7,0.1,1.4-0.3,2l-6.9,11.5c-0.4,0.6-0.9,1-1.6,1.1
				c-0.4,0.1-0.8,0.1-1.2,0c-2.9-0.8-11.6-3.8-13.9-7.4C185.9,230.7,186,229.6,186.6,228.7z"/>
			<g>
				<polygon fill="#231815" points="198.6,232.8 202.5,228.6 199.8,223.6 194.1,224.7 193.4,230.3 				"/>
				<path fill="#FFFFFF" d="M197.6,222.6c-0.6,1.2-0.1,2.6,1.1,3.1c1.2,0.6,2.6,0.1,3.1-1.1c0.6-1.2,0.1-2.6-1.1-3.1
					C199.6,220.9,198.2,221.4,197.6,222.6z"/>
				<path fill="#FFFFFF" d="M192,223.6c-0.6,1.2-0.1,2.6,1.1,3.1c1.2,0.6,2.6,0.1,3.1-1.1c0.6-1.2,0.1-2.6-1.1-3.1
					C194,222,192.6,222.5,192,223.6z"/>
				<path fill="#FFFFFF" d="M191.3,229.3c-0.6,1.2-0.1,2.6,1.1,3.1c1.2,0.6,2.6,0.1,3.1-1.1c0.6-1.2,0.1-2.6-1.1-3.1
					C193.2,227.6,191.8,228.1,191.3,229.3z"/>
				<path fill="#FFFFFF" d="M196.4,231.8c-0.6,1.2-0.1,2.6,1.1,3.1c1.2,0.6,2.6,0.1,3.1-1.1c0.6-1.2,0.1-2.6-1.1-3.1
					C198.4,230.1,197,230.6,196.4,231.8z"/>
				<path fill="#FFFFFF" d="M200.4,227.6c-0.6,1.2-0.1,2.6,1.1,3.1c1.2,0.6,2.6,0.1,3.1-1.1c0.6-1.2,0.1-2.6-1.1-3.1
					C202.3,226,200.9,226.5,200.4,227.6z"/>
			</g>
		</g>
		<g>
			<g>
				<path fill="#595757" d="M211.7,225.4c7.6-24.7,41.1-24,53.1-5.2L211.7,225.4z"/>
				<path fill="#231815" d="M211.7,228.4c-0.9,0-1.7-0.4-2.3-1.1c-0.6-0.8-0.8-1.8-0.5-2.8c4-13,15.3-21,29.5-21
					c11.9,0,23,5.8,29,15.1c0.6,0.9,0.6,2,0.2,2.9c-0.5,0.9-1.4,1.6-2.4,1.7l-53.1,5.2C211.9,228.4,211.8,228.4,211.7,228.4z
					 M238.4,209.5c-9.9,0-17.9,4.6-22,12.5l42.8-4.2C253.9,212.6,246.4,209.5,238.4,209.5z"/>
			</g>
			<g>
				<path fill="#595757" d="M196.8,252.3c11.2-15.4,59.9-19.4,90.8-13.5C265.3,214.6,214.4,195,196.8,252.3z"/>
				<path fill="#231815" d="M196.8,255.3c-0.4,0-0.9-0.1-1.3-0.3c-1.3-0.7-1.9-2.1-1.5-3.5c10.1-32.6,29.8-39.4,44.6-39.4
					c21,0,40.8,13.4,51.3,24.8c0.9,0.9,1,2.3,0.4,3.5c-0.6,1.1-1.9,1.7-3.2,1.5c-8.8-1.7-19.1-2.6-29.8-2.6
					c-28.3,0-51.6,6-58.1,14.9C198.6,254.8,197.7,255.3,196.8,255.3z M238.5,217.9c-15.5,0-27.5,8.7-35.1,25.3
					c10.2-5.6,27.7-10,53.9-10c7.4,0,14.7,0.4,21.4,1.2C268,225.5,253,217.9,238.5,217.9z"/>
			</g>
		</g>
		<g>
			<path fill="#231815" d="M291.3,218.9c-5.2-4.5-11-9.8-12.1-11.1c-0.4-0.8-1.1-1.3-2-1.5c-1.4-0.3-2.8,0.5-3.4,1.8
				c-0.8,2-6.1,6.2-10.3,9.7l-0.3,0.2c-0.6,0.5-1,1.3-1.1,2.1c-0.1,0.8,0.2,1.6,0.8,2.2l11.1,11.7c0.6,0.6,1.4,0.9,2.2,0.9
				c0.5,0,0.9-0.1,1.4-0.3c3.2-1.7,12.7-7.5,14.5-12.4C292.5,221,292.2,219.7,291.3,218.9z"/>
			<g>
				<polygon fill="#231815" points="278.2,226.8 272.5,222.9 274.4,216.3 281.3,216.1 283.6,222.5 				"/>
				<path fill="#FFFFFF" d="M276.6,214.5c1,1.2,0.7,3-0.5,4c-1.2,1-3,0.7-4-0.5c-1-1.2-0.7-3,0.5-4
					C273.9,213.1,275.7,213.3,276.6,214.5z"/>
				<path fill="#FFFFFF" d="M283.5,214.3c1,1.2,0.7,3-0.5,4c-1.2,1-3,0.7-4-0.5c-1-1.2-0.7-3,0.5-4
					C280.8,212.9,282.6,213.1,283.5,214.3z"/>
				<path fill="#FFFFFF" d="M285.9,220.8c1,1.2,0.7,3-0.5,4c-1.2,1-3,0.7-4-0.5c-1-1.2-0.7-3,0.5-4
					C283.1,219.3,284.9,219.6,285.9,220.8z"/>
				<circle fill="#FFFFFF" cx="278.2" cy="226.8" r="2.8"/>
				<path fill="#FFFFFF" d="M274.7,221.2c1,1.2,0.7,3-0.5,4c-1.2,1-3,0.7-4-0.5c-1-1.2-0.7-3,0.5-4
					C272,219.7,273.8,219.9,274.7,221.2z"/>
			</g>
		</g>
	</g>
	<g>
		<path fill="#FFF000" d="M206.8,234.8c29.8-0.7,80.4-25,100.9-49.7c-41.8,23.9-88.4,46.3-143.3,42.8
			C164.3,227.9,175.6,235.6,206.8,234.8z"/>
		<path fill="#231815" d="M202.6,236.9C202.6,236.9,202.6,236.9,202.6,236.9c-28.3,0-39-7-39.4-7.3c-0.7-0.5-1.1-1.4-0.8-2.3
			c0.3-0.8,1.1-1.4,2-1.3c3.7,0.2,7.4,0.4,11.1,0.4c0,0,0,0,0,0c49.3,0,92.1-20.6,131.1-42.9c0.8-0.5,1.9-0.3,2.5,0.4
			c0.6,0.7,0.6,1.8,0,2.5c-20.5,24.7-71.2,49.7-102.4,50.4C205.4,236.8,204,236.9,202.6,236.9z M176.5,230.3
			c5.9,1.4,14.5,2.6,26.2,2.6c0,0,0,0,0,0c1.3,0,2.7,0,4.1,0c25.5-0.6,66.1-18.9,89.5-39.1C260.3,213.4,221.1,230,176.5,230.3z"/>
	</g>
</g>
</svg>
