<?xml version="1.0" encoding="utf-8"?>
<!-- Generator: Adobe Illustrator 17.1.0, SVG Export Plug-In . SVG Version: 6.00 Build 0)  -->
<!DOCTYPE svg PUBLIC "-//W3C//DTD SVG 1.1//EN" "http://www.w3.org/Graphics/SVG/1.1/DTD/svg11.dtd">
<svg version="1.1" id="レイヤー_1" xmlns="http://www.w3.org/2000/svg" xmlns:xlink="http://www.w3.org/1999/xlink" x="0px"
	 y="0px" viewBox="0 0 480 640" enable-background="new 0 0 480 640" xml:space="preserve">
<g>
	<path d="M216.7,415.7c-14.7,0-28.4-7.4-35.5-14.7c-4.2-4.3-6.4-8.8-6.2-12.9c0.2-7.6,5.3-12.7,12.5-12.7c6.9,0,13.9,4.5,18.2,11.9
		c3.3,5.5,9.4,6.7,14,6.7c0,0,0,0,0,0c10.8,0,25.5-6.6,35.7-18c-3.2,0.5-6,0.6-8.2,0.6c-0.3,0-0.6,0-0.9,0c-3.3,4-7.8,6.1-13.1,6.1
		c-3.5,0-9.1-1.1-11.2-8c-9.7-1-18.8-4.3-26.7-9.8c-0.2,0.8-0.6,1.6-1.1,2.4c-1.5,2.4-4.1,3.7-7.2,3.7c-1,0-2.1-0.1-3.2-0.4
		c-11.6-2.8-26-18.9-28-28.5c-1-4.7,0-9.1,2.6-12.4c2.4-3,6.1-4.7,10-4.7c0.8,0,1.6,0.1,2.4,0.2c-0.3-2.6-0.5-5.1-0.5-7.7
		c0-10.3,2.7-20.3,7.9-29.1c-0.2-0.6-0.4-1.1-0.5-1.8c-0.6-3.1,0.4-6.3,2.8-9.2c0.4-0.4,0.7-0.9,1.2-1.3c-3.5-1.2-5.1-3.7-5.4-5.9
		c-0.3-3.1,1.7-5.8,4.8-6.5c1.9-0.4,8.8-4.3,12.5-7.8c10.9-16.9,31-26.7,53.7-26c10.5,0.3,19.9,3.5,28.1,9.5
		c5.1,0.3,12.3,0.3,17.5,0.3c3.2,0,6.4,0,9.4,0c2.7,0,5.2,0,7.4,0c6.8,0,8.5,0.1,9.6,0.4c2.5,0.6,4.1,2.8,4.2,5.6
		c0.1,5.3-5.7,14.9-18.7,18.7c-2.1,0.6-4.3,1-6.6,1l0,0c-1,0-2-0.1-3-0.2c0.7,1.5,1.3,3.1,1.9,4.7c8.2,23.3,10.2,75.5-14.7,94.6
		c-6.8,23-30.1,43.8-56.2,50C223.2,415.3,220,415.7,216.7,415.7z M187.5,384.4c-1.4,0-3.4,0.4-3.5,4c0,1.2,0.9,3.5,3.7,6.4
		c5.6,5.8,17,11.9,29,11.9c2.6,0,5-0.3,7.4-0.8c18.9-4.5,36.6-18.1,45.4-33.9l-0.4,0.2c-10.2,17.6-31.2,30.7-49.5,30.7c0,0,0,0,0,0
		c-9.7,0-17.5-3.9-21.7-11.1C194.9,386.7,190.5,384.4,187.5,384.4z M225.7,365.8c0.6,0,1.2,0.1,1.7,0.3c1.6,0.6,2.6,2.1,2.8,3.8
		c0.3,3.8,1.1,3.8,3,3.8c3.1,0,5.3-1.3,7-4c0.9-1.5,2.5-2.3,4.2-2.2c0.9,0.1,1.8,0.1,2.8,0.1c4.4,0,11.2-0.7,19.1-4.1
		c2.2-0.9,4.8,0,5.8,2.2c0.1,0.2,0.2,0.3,0.2,0.5c0.7-1.8,1.3-3.6,1.8-5.4c0.3-1,0.9-2,1.8-2.6c21.3-14.7,20.3-63.5,12.6-85.1
		c-1.6-4.6-3.7-8.9-6-12.7c-1.1-1.7-0.9-3.9,0.5-5.4c1.3-1.5,3.5-1.9,5.3-1.1c3.6,1.7,6.9,2.6,9.9,2.6l0,0c1.4,0,2.8-0.2,4-0.6
		c5.7-1.7,9-4.7,10.8-7.1c-0.9,0-2,0-3.3,0c-2.2,0-4.7,0-7.3,0c-3,0-6.2,0-9.5,0c-5.7,0-14,0-19.4-0.4c-0.9-0.1-1.7-0.4-2.4-0.9
		c-6.9-5.3-15-8.2-24-8.5c-0.7,0-1.3,0-2,0c-18.8,0-35.3,8.3-44.1,22.3c-0.2,0.3-0.4,0.5-0.6,0.8c-1.1,1.1-2.6,2.3-4.2,3.5
		c1.2,0.7,2.1,1.9,2.3,3.4c0.2,2.1,1.6,3,1.8,3c2,1.1,2.9,3.6,1.9,5.7c-0.9,2.1-3.2,3.2-5.4,2.5c0,0,0,0,0,0
		c-1.6,1.3-3.8,1.4-5.4,0.3c-0.9,0.2-2.7,1.3-3.9,2.7c-0.7,0.9-0.9,1.5-0.8,1.7c0.1,0.3,0.1,0.4,0.2,0.5c1.4,1.5,1.6,3.8,0.4,5.5
		c-5.2,7.9-7.9,17.1-7.9,26.5c0,5.2,0.8,10.4,2.5,15.4c0.7,2.1-0.2,4.3-2.1,5.4c-1.9,1-4.3,0.6-5.7-1.1c-0.8-0.9-1.2-1.3-1.3-1.4
		c-1.5-1.1-3-1.7-4.4-1.7c-1.2,0-2.3,0.5-3,1.4c-0.9,1.1-1.2,2.9-0.8,4.9c1.3,6.4,13.7,19.7,21.3,21.5c0.4,0.1,0.7,0.1,0.9,0.2
		c0.1-1-0.2-2.7-0.7-4c-0.3-0.7-0.7-1.6-1.2-2.6c-1-2-0.3-4.4,1.5-5.7c1.8-1.3,4.3-1,5.8,0.7c8.5,9.2,20,14.7,32.4,15.5
		C225,365.9,225.3,365.8,225.7,365.8z"/>
	<path d="M225.5,372C225.5,372,225.4,372,225.5,372c-29.3-1.3-52.2-25.2-52.2-54.4c0-17.3,7.9-33.2,21.8-43.6
		c0.7-0.5,1.6-0.4,2.1,0.3c0.5,0.7,0.4,1.6-0.3,2.1c-13.1,9.8-20.6,24.9-20.6,41.2c0,27.6,21.6,50.2,49.2,51.4
		c0.8,0,1.5,0.7,1.4,1.6C226.9,371.4,226.3,372,225.5,372z"/>
	<linearGradient id="SVGID_1_" gradientUnits="userSpaceOnUse" x1="207.8593" y1="363.1635" x2="243.6096" y2="280.6628">
		<stop  offset="0" style="stop-color:#A4A800"/>
		<stop  offset="1" style="stop-color:#DAE000"/>
	</linearGradient>
	<path fill="url(#SVGID_1_)" d="M225.5,370.5c-28.2-1.2-50.7-24.5-50.7-52.9c0-17.3,8.3-32.7,21.2-42.4c9.1,4.7,16.3-4,22-8.1
		c16.2,4.2,42.4,1.7,60.1,33.7c2.7,4.9,2.7,10.9,2.7,16.8c0,5.3-0.8,10.3-2.2,15.1c-13-4.8-28.5,1.2-33,12.9
		C236.9,361.1,225.5,370.5,225.5,370.5z"/>
	
		<ellipse transform="matrix(-0.9761 -0.2175 0.2175 -0.9761 361.6698 669.0837)" fill="#DAE000" stroke="#000000" stroke-width="2" stroke-miterlimit="10" cx="217.7" cy="314.6" rx="44.4" ry="46.5"/>
	
		<ellipse transform="matrix(-0.9761 -0.2175 0.2175 -0.9761 361.6698 669.0837)" fill="#E9EC66" stroke="#000000" stroke-width="2" stroke-miterlimit="10" cx="217.7" cy="314.6" rx="44.4" ry="46.5"/>
	<linearGradient id="SVGID_2_" gradientUnits="userSpaceOnUse" x1="203.4927" y1="351.7596" x2="229.7427" y2="277.7596">
		<stop  offset="0" style="stop-color:#A4A800"/>
		<stop  offset="1" style="stop-color:#DAE000"/>
	</linearGradient>
	<path fill="url(#SVGID_2_)" stroke="#000000" stroke-width="2" stroke-miterlimit="10" d="M215.8,356.8c-2.8,0-5.6-0.3-8.4-0.9
		c-21.6-4.8-35.1-27.2-30-50c4.3-19.4,21.2-33.4,40-33.4c2.8,0,5.6,0.3,8.4,0.9c10.4,2.3,19.3,8.8,25,18.2c5.7,9.5,7.5,20.8,5,31.8
		C251.6,342.7,234.7,356.8,215.8,356.8z"/>
	<g>
		<g>
			<path fill="#DAE000" d="M255.9,323.4c2.5-11,0.7-22.3-5-31.8c-2.6-4.2-5.8-7.9-9.5-10.8c-1.3-0.4-2.6-0.8-4-1.1
				c-2.8-0.6-5.6-0.9-8.4-0.9c-18.9,0-35.7,14.1-40,33.4c-3.7,16.6,2.5,33.1,14.6,42.6c1.3,0.4,2.6,0.8,3.9,1.1
				c2.8,0.6,5.6,0.9,8.4,0.9C234.7,356.8,251.6,342.7,255.9,323.4z"/>
		</g>
		<g>
			<path fill="none" stroke="#000000" stroke-width="0.5" stroke-miterlimit="10" d="M255.9,323.4c2.5-11,0.7-22.3-5-31.8
				c-2.6-4.2-5.8-7.9-9.5-10.8c-1.3-0.4-2.6-0.8-4-1.1c-2.8-0.6-5.6-0.9-8.4-0.9c-18.9,0-35.7,14.1-40,33.4
				c-3.7,16.6,2.5,33.1,14.6,42.6c1.3,0.4,2.6,0.8,3.9,1.1c2.8,0.6,5.6,0.9,8.4,0.9C234.7,356.8,251.6,342.7,255.9,323.4z"/>
		</g>
	</g>
	<path fill="#22AC38" d="M222.1,350.3c-2.1,0.1-3.9,0-6-0.4c-0.6-6.3-1-14.3,2.1-28.1c5.8,15,12.2,26.1,12.2,26.1
		C229.4,348.4,226.1,350,222.1,350.3 M212.3,348.7c-16.6-7.6-19.7-25.4-14.1-39.2C198.4,323.1,202.3,333.7,212.3,348.7 M234.8,345.3
		c2.6-11.4,7-22.2,9.6-33.6c0.5-2.2,0.9-5.6,0.2-9.4C252.2,314.3,251.4,332.9,234.8,345.3 M200.6,304.9c7.5-11.5,21.8-20.9,37.6-9.4
		c-0.1,0-10.1,0.5-2.8,11.2c3.9,5.8,4.2,10.5,1.1,19.9c-1.1,4.7-1.5,6.1-2.5,10.9c-4.8-11.4-8.7-21.2-11.8-33.7
		c2.7-0.4,5.8-0.8,4.2-2.6c-0.2-0.2-14.5,1.2-14.6,1.2c-1.1,0.2-1.3,1.5-1.3,1.5c-0.1,1,0.1,1,3.2,0.8c0.8,4.4,1.2,6.4,3.2,12.8
		c-1.5,6.1-3,12.3-3.2,22c-6.5-13-9.1-22-9.6-33.2c0.9-0.6,2.2-0.3,3-1.2c0.6-0.6,0.8-1.9,0.1-2
		C204.7,302.7,202.8,304.4,200.6,304.9 M223.2,287.8c-24.6,2-40.7,39.2-18.9,58.6c22.1,19.7,49.4-5.8,48.4-29.4
		C252.1,298.8,236.9,287.2,223.2,287.8"/>
	<path fill="#FF8800" d="M193.5,271.2c-13,3.7-14.3-2.3-11.3-3c3-0.7,11-5.3,15-9.3L193.5,271.2z"/>
	<path fill="#FF8800" d="M278.5,361.9c-5.7,21.7-28,42.3-53.3,48.3c-21.8,5.2-46-11.7-45.7-22c0.4-11.6,15-11,22.3,1.3
		c11.2,18.9,49.7,5.7,64-20.7L278.5,361.9z"/>
	<path fill="#57A1BE" d="M196,275.1c-0.1,0.1-0.3,0.2-0.4,0.3c0.2-0.1,0.4-0.2,0.7-0.2C196.2,275.2,196.1,275.2,196,275.1z"/>
	<path fill="#57A1BE" d="M210.7,272.9c-0.2,0-0.4,0-0.7,0c-4.8,0-9.5,0.8-13.8,2.4C201.7,278,206.5,275.9,210.7,272.9z"/>
	<path fill="#FFD200" d="M243.5,372c8.1,0.7,21.5-0.8,35-10.1c24.4-16.8,22-68.7,14.3-90.3c-7.7-21.7-23.7-36.3-45.7-37
		c-22-0.7-40.3,9-50,24.3c-6.5,10.3-1.7,16,1.3,17.3c3,1.3,15.7-3.7,19.3-10.3c8.7,5.3,18.3,3,26.7,0.3l16,4.7
		c-12.7-5-28.7-2-37,5.3c-8.3,7.3-2.7,12.7,3.7,13.3c6.3,0.7,18.7-5,28.3-3c9.7,2,12.6,5.5,23,14.9c0,0,5.7,22.7,0,31.4
		c-9.8-5.7-27.6,0.8-32.9,12.8L243.5,372z"/>
	<path d="M278.6,334.2c-0.1,0-0.3,0-0.4-0.1c-0.8-0.2-1.2-1.1-1-1.9c1.4-4.8,2.1-9.7,2.1-14.7c0-5.6-0.9-11.1-2.6-16.3
		c-0.3-0.8,0.2-1.6,0.9-1.9c0.8-0.3,1.6,0.2,1.9,0.9c1.8,5.5,2.8,11.3,2.8,17.2c0,5.3-0.8,10.5-2.3,15.6
		C279.9,333.8,279.3,334.2,278.6,334.2z"/>
	<path d="M246.2,346.4c-0.2,0-0.4,0-0.7-0.2c-0.7-0.4-1.1-1.3-0.7-2c4-8.2,11.6-13.5,20.8-14.4c7.6-0.8,15.2,1.6,18.4,5.8
		c0.5,0.7,0.4,1.6-0.3,2.1c-0.7,0.5-1.6,0.4-2.1-0.3c-2.6-3.4-9.2-5.3-15.7-4.7c-4.8,0.5-13.5,2.8-18.4,12.7
		C247.2,346.1,246.7,346.4,246.2,346.4z"/>
	<path d="M247.1,373.6c-1.5,0-2.8-0.1-3.7-0.2c-0.8-0.1-1.4-0.8-1.4-1.6c0.1-0.8,0.8-1.4,1.6-1.4c5.3,0.5,19.1,0.4,34-9.8
		c23.5-16.2,21.4-67,13.8-88.6c-7.9-22.3-24-35.4-44.3-36c-20.8-0.6-39,8.2-48.7,23.6c-2.7,4.2-3.6,8.1-2.7,11.1
		c0.7,2.2,2.2,3.6,3.3,4.1c1.9,0.8,13.9-3.3,17.4-9.7c0.2-0.4,0.5-0.6,0.9-0.7c0.4-0.1,0.8,0,1.2,0.2c8.2,5,17.4,2.7,25.4,0.2
		c0.8-0.3,1.6,0.2,1.9,1c0.3,0.8-0.2,1.6-1,1.9c-8.8,2.8-18.1,4.8-26.6,0.2c-4.7,6.6-16.7,11.3-20.4,9.7c-1.8-0.8-4-2.8-5-5.9
		c-0.8-2.7-1-7.3,3-13.6c10.3-16.3,29.5-25.7,51.3-25c21.6,0.7,38.7,14.5,47,38c3.6,10.2,6.5,28.8,4.9,47.6
		c-1.3,14.9-5.7,34.7-19.8,44.4C266.4,372,254.1,373.6,247.1,373.6z"/>
	<path fill="#FF8800" d="M273.2,243.9c-6-0.5-1.3,4,0.7,5.7c2,1.7,16.3,14.7,29.7,10.7c13.3-4,17.3-15,14.7-15.7
		C315.5,243.9,285.5,244.9,273.2,243.9z"/>
	<path d="M298.2,262.5C298.2,262.5,298.2,262.5,298.2,262.5c-5.3,0-13.8-2-25-11.5l-0.4-0.3c-4.9-4.1-4.2-6-4-6.6
		c0.4-1.2,1.6-1.8,3.5-1.8c0.3,0,0.6,0,1,0c5.2,0.4,13.7,0.5,19.6,0.5c3.2,0,6.5,0,9.5,0c2.7,0,5.2,0,7.4,0c6.4,0,8.1,0.1,8.8,0.3
		c1.2,0.3,1.9,1.3,1.9,2.8c0.1,3.6-4.8,12.3-16.5,15.8C302.1,262.2,300.2,262.5,298.2,262.5z M271.9,245.4c0.4,0.6,1.3,1.8,2.9,3
		l0.4,0.3c10.4,8.9,18.3,10.8,23,10.8c0,0,0,0,0,0c1.7,0,3.3-0.2,4.9-0.7c7.3-2.2,11.8-6.7,13.6-10.2c0.7-1.3,0.8-2.2,0.8-2.6
		c-1-0.1-3.6-0.2-7.7-0.2c-2.2,0-4.7,0-7.4,0c-3,0-6.3,0-9.5,0c-6,0-14.5,0-19.8-0.5C272.6,245.3,272.2,245.3,271.9,245.4z"/>
	<path d="M186.3,273.9c-3.4,0-5.1-1-5.9-1.9c-0.9-0.9-1.2-2.1-0.9-3.2c0.3-1.1,1.2-1.9,2.4-2.1c2.6-0.6,10.3-5,14.3-8.9
		c0.6-0.6,1.5-0.6,2.1,0c0.6,0.6,0.6,1.5,0,2.1c-4.1,4.1-12.4,9-15.7,9.7c-0.1,0-0.2,0.1-0.2,0.1c0,0,0.1,0.2,0.4,0.4
		c0.6,0.4,3.2,1.6,10.4-0.4c0.8-0.2,1.6,0.2,1.9,1c0.2,0.8-0.2,1.6-1,1.9C190.7,273.6,188.2,273.9,186.3,273.9z"/>
	<path d="M215.2,257.2c-2.4,1.8-1.7,4,1,4.3c2.7,0.3,2.9,0.5,5.3-1.3c2.7-2,3-5.3,0-5C218.5,255.6,216.5,256.2,215.2,257.2z"/>
	<circle cx="205.2" cy="258.6" r="3"/>
	<circle cx="239.8" cy="250.2" r="3"/>
	<path d="M216.8,412.7c-11.7,0-23.1-5-30.4-10.9c-5.5-4.5-8.6-9.5-8.5-13.6c0.2-4.9,2.6-8.4,6.8-9.5c5.3-1.4,13.3,1.7,18.3,10.1
		c4.1,6.9,11.6,8.3,17.1,8.2c16.5-0.3,35.5-12.7,44.3-28.8c0.4-0.7,1.3-1,2-0.6c0.7,0.4,1,1.3,0.6,2c-9.2,17-29.4,30-46.8,30.3
		c-9,0.1-16-3.2-19.8-9.6c-4.3-7.2-10.7-9.8-15-8.7c-2.8,0.7-4.5,3.1-4.6,6.7c-0.1,3.1,2.7,7.3,7.4,11.2c8.5,6.9,23,12.5,36.4,9.3
		c24.6-5.8,46.6-25.7,52.2-47.3c0.2-0.8,1-1.3,1.8-1.1c0.8,0.2,1.3,1,1.1,1.8c-5.9,22.6-28.8,43.3-54.4,49.4
		C222.6,412.4,219.7,412.7,216.8,412.7z"/>
	<path d="M281.8,305.4c-0.4,0-0.7-0.1-1-0.4l-1.2-1.1c-9.7-8.8-15.6-14.1-24.4-15.9c-5.3-1.1-11.7,0.3-17.4,1.6
		c-4.3,0.9-8,1.8-10.8,1.5c-4.4-0.5-7.9-2.8-8.9-5.9c-0.7-2.2-0.5-5.7,4.4-10c9.2-8.1,26.1-10.5,38.5-5.6c0.8,0.3,1.1,1.2,0.8,1.9
		c-0.3,0.8-1.2,1.2-1.9,0.8c-11.5-4.5-27.1-2.3-35.5,5.1c-2.9,2.5-4.1,5-3.5,6.9c0.6,2,3.2,3.5,6.3,3.8c2.4,0.2,6-0.6,9.9-1.4
		c5.9-1.3,12.6-2.8,18.6-1.6c9.7,2,16.1,7.8,25.8,16.6l1.2,1.1c0.6,0.6,0.7,1.5,0.1,2.1C282.6,305.2,282.2,305.4,281.8,305.4z"/>
	<g>
		<path fill="#FFD200" d="M175.5,332.2c-8.1-6.3-17.3-0.7-15.3,9c1.6,7.9,15.1,22.7,24.7,25c8.3,2,6.6-7,5.3-10
			C187.8,350.9,179.8,335.6,175.5,332.2z"/>
		<path d="M187,368L187,368c-0.8,0-1.6-0.1-2.5-0.3c-10.1-2.4-24-17.7-25.8-26.2c-0.8-3.8-0.1-7.3,2-9.9c1.9-2.3,4.6-3.6,7.7-3.6
			c2.7,0,5.5,1,8,3c4.9,3.8,13.3,20.5,15.1,24.6c0.8,1.7,2.2,6.9,0.2,10.1C191,366.8,189.6,368,187,368z M168.4,331.1
			c-2.2,0-4.1,0.9-5.3,2.5c-1.5,1.9-2,4.5-1.4,7.4c1.5,7.4,14.7,21.7,23.5,23.8c0.7,0.2,1.3,0.2,1.8,0.2c1.4,0,1.9-0.5,2.2-1
			c1.1-1.7,0.5-5.3-0.4-7.2c-2.5-5.6-10.3-20.4-14.2-23.4C172.6,331.9,170.5,331.1,168.4,331.1z"/>
	</g>
	<g>
		<path fill="#FFD200" d="M246.2,366.6c0,0-2,11.7-13,11.7s-6.3-13.3-7.7-22c-1.3-8.7-6.7-20,1.3-25.3c8-5.3,17.7,10.3,19.3,16.3
			C248.5,355.2,248.2,360.2,246.2,366.6z"/>
		<path d="M233.2,380.2c-2.9,0-5.2-0.8-6.8-2.5c-3.1-3.2-2.9-8.5-2.7-13.7c0.1-2.6,0.2-5.3-0.2-7.5c-0.3-1.8-0.8-3.8-1.2-5.9
			c-1.9-7.7-4-16.5,3.4-21.4c1.4-0.9,3-1.4,4.6-1.4c8.7,0,16.3,13.7,17.8,18.9c2.6,8.8,2,14.2,0,20.3
			C247.3,371.7,243.1,380.2,233.2,380.2z M230.3,331.8c-0.8,0-1.6,0.2-2.4,0.8c-4.7,3.1-3.8,8.8-1.8,17.2c0.5,2.1,1,4.2,1.3,6.2
			c0.4,2.6,0.3,5.5,0.2,8.3c-0.1,4.3-0.3,8.8,1.6,10.8c0.8,0.8,2.1,1.3,3.9,1.3c9.1,0,11-9.6,11-10c0-0.1,0-0.2,0.1-0.3
			c1.8-5.6,2.3-10.2,0-18.2C242.8,342.4,235.7,331.8,230.3,331.8z"/>
	</g>
	<g>
		<path fill="#FFD200" d="M192.8,276.2c-3.3-1.3-11.7,4.3-10.7,9.7c1,5.3,7,5.3,11,1.3S196.1,277.5,192.8,276.2z"/>
		<path d="M187,291.6L187,291.6c-3.3,0-5.7-2.1-6.3-5.4c-0.4-2.2,0.4-4.6,2.2-6.8c2.4-2.8,6.1-4.9,8.8-4.9c0.6,0,1.2,0.1,1.7,0.3
			c1.8,0.7,3.2,2.5,3.7,4.8c0.6,3-0.4,6.3-2.8,8.7C192.1,290.4,189.5,291.6,187,291.6z M191.7,277.5c-1.6,0-4.6,1.5-6.5,3.8
			c-0.7,0.9-1.9,2.6-1.5,4.3c0.5,2.4,2.1,3,3.4,3c1.7,0,3.6-0.9,5.1-2.4c1.7-1.7,2.4-3.9,2-5.9c-0.3-1.3-1-2.2-1.9-2.6
			C192.1,277.6,191.9,277.5,191.7,277.5z"/>
	</g>
	<g>
		<path fill="#FFFFFF" d="M186.9,256.6c11.8,2.8,20-8.8,29.5-14c13-7.2,32.5-0.8,46.5,1.5c8,1,15.8,0.8,23.2-2
			c3.8-1.5,16-6.2,11.5-11.2c-2-2.2-7.5-2-10.5-2.5c-5-0.5-10-1.2-15-1.5c-10-0.5-19.8-1.8-29.8-2c-14.2-0.2-26.2,5.3-37.5,13.5
			c-5.2,3.5-10.5,6.8-16,9.8C186.7,249.4,178.7,256.4,186.9,256.6z"/>
		<path fill="#E83828" d="M262.7,244.1c5.1-5.2,13.4-8.4,19.1-12.2c1.6-1,3-2.3,4.5-3.6c-4.7-0.5-9.4-1.2-14.1-1.4
			c-0.3,0-0.6,0-0.8,0c-2.6,1.8-5.8,3.3-7.9,4.8c-3.9,2.7-9.7,5.8-13,10C254.8,242.6,258.9,243.5,262.7,244.1z"/>
		<path fill="none" stroke="#000000" stroke-width="4" stroke-miterlimit="10" d="M186.9,256.6c11.8,2.8,20-8.8,29.5-14
			c13-7.2,32.5-0.8,46.5,1.5c8,1,15.8,0.8,23.2-2c3.8-1.5,16-6.2,11.5-11.2c-2-2.2-7.5-2-10.5-2.5c-5-0.5-10-1.2-15-1.5
			c-10-0.5-19.8-1.8-29.8-2c-14.2-0.2-26.2,5.3-37.5,13.5c-5.2,3.5-10.5,6.8-16,9.8C186.7,249.4,178.7,256.4,186.9,256.6z"/>
	</g>
</g>
</svg>
